<svg width="60" height="30" viewBox="0 0 60 30" fill="none" xmlns="http://www.w3.org/2000/svg">
<path fill-rule="evenodd" clip-rule="evenodd" d="M60 15C60 14.558 59.7743 14.1342 59.3724 13.8217C58.9706 13.5091 58.4256 13.3336 57.8573 13.3336H7.31908L20.8054 2.84837C21.0046 2.69343 21.1626 2.5095 21.2704 2.30706C21.3782 2.10462 21.4337 1.88765 21.4337 1.66854C21.4337 1.44942 21.3782 1.23245 21.2704 1.03002C21.1626 0.82758 21.0046 0.643641 20.8054 0.488703C20.6061 0.333765 20.3696 0.210862 20.1093 0.12701C19.849 0.0431581 19.5701 0 19.2883 0C19.0066 0 18.7276 0.0431581 18.4673 0.12701C18.207 0.210862 17.9705 0.333765 17.7713 0.488703L0.629505 13.8202C0.429961 13.975 0.271644 14.1589 0.163623 14.3613C0.0556027 14.5638 0 14.7808 0 15C0 15.2192 0.0556027 15.4362 0.163623 15.6387C0.271644 15.8411 0.429961 16.025 0.629505 16.1798L17.7713 29.5113C17.9705 29.6662 18.207 29.7891 18.4673 29.873C18.7276 29.9568 19.0066 30 19.2883 30C19.5701 30 19.849 29.9568 20.1093 29.873C20.3696 29.7891 20.6061 29.6662 20.8054 29.5113C21.0046 29.3564 21.1626 29.1724 21.2704 28.97C21.3782 28.7675 21.4337 28.5506 21.4337 28.3315C21.4337 28.1123 21.3782 27.8954 21.2704 27.6929C21.1626 27.4905 21.0046 27.3066 20.8054 27.1516L7.31908 16.6664H57.8573C58.4256 16.6664 58.9706 16.4909 59.3724 16.1783C59.7743 15.8658 60 15.442 60 15Z" fill="white"/>
</svg>
