<svg width="47" height="54" viewBox="0 0 47 54" fill="none" xmlns="http://www.w3.org/2000/svg">
<path d="M41.8618 0.187897H8.46386C5.36556 0.187897 0.756653 2.3264 0.756653 8.21731V45.6879C0.756653 51.5788 5.36556 53.7173 8.46386 53.7173H44.3234C45.8016 53.7173 46.9999 52.519 46.9999 51.0408C46.9999 49.5627 45.8016 48.3644 44.3234 48.3644H8.49469C7.30778 48.3322 5.89479 47.8451 5.89479 45.6879C5.89479 45.4176 5.91791 45.1767 5.95645 44.9572C6.24418 43.4156 7.45678 43.0382 8.49469 43.0114H36.9999C42.5227 43.0114 46.9999 38.5343 46.9999 33.0114V5.54084C46.9999 4.12115 46.4586 2.75961 45.495 1.75574C44.5314 0.751865 43.2245 0.187897 41.8618 0.187897ZM41.8618 19.8738C41.8618 21.8785 39.7353 23.1685 37.9574 22.2423C37.1842 21.8396 36.2631 21.8396 35.4898 22.2423C33.7119 23.1685 31.5855 21.8785 31.5855 19.8738V10.679C31.5855 7.84126 33.8859 5.54084 36.7236 5.54084C39.5613 5.54084 41.8618 7.84126 41.8618 10.679V19.8738Z" fill="#3686F7"/>
</svg>
