<svg width="215" height="70" viewBox="0 0 215 70" fill="none" xmlns="http://www.w3.org/2000/svg">
<path d="M208.093 42.7491L214.06 46.7016C212.123 49.5358 207.491 54.3987 199.482 54.3987C189.537 54.3987 182.13 46.7538 182.13 37.0284C182.13 26.6795 189.615 19.6586 198.645 19.6586C207.726 19.6586 212.175 26.8352 213.615 30.7096L214.4 32.6861L191.003 42.3071C192.782 45.7916 195.557 47.5598 199.482 47.5598C203.408 47.5598 206.13 45.6355 208.093 42.7491ZM189.747 36.4829L205.371 30.0338C204.507 27.8758 201.943 26.3418 198.88 26.3418C194.981 26.3418 189.563 29.7742 189.747 36.4829Z" fill="#FF302F"/>
<path d="M170.851 1.95058H178.388V52.8125H170.851V1.95016V1.95058Z" fill="#20B15A"/>
<path d="M158.968 21.0106H166.244V51.9022C166.244 64.7214 158.628 70 149.625 70C141.145 70 136.042 64.3315 134.131 59.7291L140.805 56.9725C142.009 59.8067 144.914 63.1615 149.625 63.1615C155.409 63.1615 158.968 59.5989 158.968 52.9424V50.4462H158.707C156.979 52.5262 153.682 54.3983 149.494 54.3983C140.752 54.3983 132.744 46.8314 132.744 37.0806C132.744 27.2772 140.752 19.6327 149.494 19.6327C153.655 19.6327 156.979 21.4789 158.707 23.5071H158.968V21.011V21.0106ZM159.491 37.0806C159.491 30.9438 155.383 26.4712 150.148 26.4712C144.861 26.4712 140.412 30.9438 140.412 37.0806C140.412 43.139 144.861 47.5335 150.148 47.5335C155.383 47.5598 159.492 43.139 159.492 37.0806H159.491Z" fill="#3686F7"/>
<path d="M91.3659 36.9504C91.3659 46.9616 83.5146 54.3203 73.8832 54.3203C64.2522 54.3203 56.4004 46.9358 56.4004 36.9504C56.4004 26.8873 64.2522 19.5546 73.8832 19.5546C83.5146 19.5546 91.3659 26.8873 91.3659 36.9504ZM83.7238 36.9504C83.7238 30.71 79.1696 26.419 73.8832 26.419C68.5967 26.419 64.0425 30.71 64.0425 36.9504C64.0425 43.139 68.5967 47.4817 73.8832 47.4817C79.1701 47.4817 83.7238 43.139 83.7238 36.9504Z" fill="#FF302F"/>
<path d="M129.551 37.0284C129.551 47.0397 121.699 54.3983 112.068 54.3983C102.437 54.3983 94.5856 47.0393 94.5856 37.0284C94.5856 26.9654 102.437 19.6586 112.068 19.6586C121.699 19.6586 129.551 26.9395 129.551 37.0284ZM121.883 37.0284C121.883 30.7881 117.329 26.4971 112.042 26.4971C106.755 26.4971 102.201 30.7881 102.201 37.0284C102.201 43.217 106.755 47.5598 112.042 47.5598C117.355 47.5598 121.883 43.1911 121.883 37.0284Z" fill="#FFBA40"/>
<path d="M27.6637 46.7796C16.6976 46.7796 8.11351 37.9906 8.11351 27.0952C8.11351 16.2003 16.6976 7.4112 27.6637 7.4112C33.5787 7.4112 37.8968 9.72534 41.0898 12.6898L46.3506 7.46337C41.9015 3.22494 35.9604 0 27.6637 0C12.6412 0.000417415 0 12.1701 0 27.0952C0 42.0211 12.6412 54.1904 27.6637 54.1904C35.7772 54.1904 41.9015 51.5382 46.6909 46.5976C51.611 41.7089 53.1289 34.8441 53.1289 29.2795C53.1289 27.5373 52.9197 25.7432 52.684 24.4171H27.6637V31.6459H45.4868C44.9633 36.1706 43.524 39.2649 41.404 41.3708C38.8391 43.9454 34.7828 46.7796 27.6637 46.7796Z" fill="#3686F7"/>
</svg>
