<svg width="35" height="33" viewBox="0 0 35 33" fill="none" xmlns="http://www.w3.org/2000/svg">
<path d="M18.214 0.270949C18.007 0.0953588 17.752 0 17.4895 0C17.227 0 16.972 0.0953588 16.765 0.270949L0 14.493L1.45017 16.4882L3.5 14.7494V30.4615C3.50123 31.1343 3.74746 31.7792 4.18478 32.255C4.6221 32.7308 5.21487 32.9987 5.83333 33H29.1667C29.7851 32.9987 30.3779 32.7308 30.8152 32.255C31.2525 31.7792 31.4988 31.1343 31.5 30.4615V14.7608L33.5498 16.4997L35 14.5044L18.214 0.270949ZM19.8333 30.4615H15.1667V20.3074H19.8333V30.4615ZM22.1667 30.4615V20.3074C22.166 19.6344 21.92 18.9891 21.4826 18.5132C21.0451 18.0373 20.452 17.7696 19.8333 17.7689H15.1667C14.548 17.7696 13.9549 18.0373 13.5174 18.5132C13.08 18.9891 12.834 19.6344 12.8333 20.3074V30.4615H5.83333V12.7706L17.5 2.88308L29.1667 12.7833V30.4615H22.1667Z" fill="white"/>
</svg>
