<svg width="20" height="20" viewBox="0 0 20 20" fill="none" xmlns="http://www.w3.org/2000/svg">
<path d="M14.6786 12.7447C15.889 11.1963 16.4311 9.27653 16.1965 7.36949C15.9619 5.46245 14.9679 3.70877 13.4133 2.45931C11.8588 1.20985 9.85831 0.556739 7.81217 0.630653C5.76603 0.704567 3.8251 1.50005 2.37771 2.85795C0.930312 4.21586 0.0831854 6.03604 0.00580817 7.95435C-0.0715691 9.87266 0.626509 11.7476 1.96038 13.2041C3.29426 14.6606 5.16555 15.5913 7.1999 15.8098C9.23424 16.0284 11.2816 15.5188 12.9324 14.383H12.9311C12.9686 14.4299 13.0086 14.4744 13.0536 14.5178L17.8661 19.0295C18.1005 19.2494 18.4185 19.373 18.7501 19.3731C19.0816 19.3732 19.3997 19.2498 19.6342 19.0301C19.8688 18.8103 20.0006 18.5122 20.0008 18.2014C20.0009 17.8905 19.8693 17.5923 19.6349 17.3724L14.8224 12.8607C14.7777 12.8183 14.7296 12.7791 14.6786 12.7435V12.7447ZM15.0011 8.24002C15.0011 9.08643 14.8233 9.92455 14.4778 10.7065C14.1323 11.4885 13.6259 12.199 12.9875 12.7975C12.3491 13.396 11.5912 13.8708 10.7571 14.1947C9.92296 14.5186 9.02896 14.6853 8.12612 14.6853C7.22328 14.6853 6.32929 14.5186 5.49517 14.1947C4.66106 13.8708 3.90317 13.396 3.26476 12.7975C2.62636 12.199 2.11995 11.4885 1.77445 10.7065C1.42895 9.92455 1.25112 9.08643 1.25112 8.24002C1.25112 6.53061 1.97545 4.89122 3.26476 3.68249C4.55408 2.47376 6.30276 1.7947 8.12612 1.7947C9.94949 1.7947 11.6982 2.47376 12.9875 3.68249C14.2768 4.89122 15.0011 6.53061 15.0011 8.24002Z" fill="white"/>
</svg>
